<svg id="visual" viewBox="0 0 960 540" width="960" height="540" xmlns="http://www.w3.org/2000/svg" xmlns:xlink="http://www.w3.org/1999/xlink" version="1.1"><g><g transform="translate(440 493)"><path d="M110.9 -38.2C124 4.1 101.1 55.8 63.6 81.7C26.1 107.5 -25.9 107.4 -64.3 81.2C-102.7 55 -127.4 2.8 -114.4 -39.4C-101.4 -81.6 -50.7 -113.8 -0.9 -113.6C48.9 -113.3 97.9 -80.5 110.9 -38.2Z" fill="none" stroke="#FCAF3C" stroke-width="5"></path></g><g transform="translate(661 165)"><path d="M100.7 -35.8C111.9 1.7 89.5 47.1 52.4 74.7C15.2 102.3 -36.7 112.1 -69.5 89.7C-102.2 67.3 -115.8 12.6 -101 -29.8C-86.3 -72.2 -43.1 -102.4 0.8 -102.7C44.8 -102.9 89.6 -73.3 100.7 -35.8Z" fill="none" stroke="#FCAF3C" stroke-width="5"></path></g><g transform="translate(89 301)"><path d="M93.6 -31.8C105.9 7.6 90 54.7 57.2 78.5C24.4 102.3 -25.2 102.6 -54.3 80.2C-83.4 57.7 -92.1 12.5 -79.6 -27C-67.1 -66.6 -33.6 -100.4 3.5 -101.6C40.6 -102.7 81.2 -71.2 93.6 -31.8Z" fill="none" stroke="#FCAF3C" stroke-width="5"></path></g><g transform="translate(786 514)"><path d="M84.9 -30.6C94.3 1.1 75.1 39.1 45.3 60.2C15.5 81.4 -24.9 85.7 -52 67C-79 48.4 -92.7 6.9 -81.9 -26.9C-71 -60.7 -35.5 -86.9 1.2 -87.3C37.8 -87.7 75.6 -62.3 84.9 -30.6Z" fill="none" stroke="#FCAF3C" stroke-width="5"></path></g><g transform="translate(296 37)"><path d="M89.2 -28.1C101.1 7.9 86.5 53.3 53.4 78.6C20.3 103.8 -31.3 108.9 -62.3 86.2C-93.4 63.5 -104.1 13.1 -90.3 -25.3C-76.5 -63.8 -38.3 -90.3 0.2 -90.4C38.6 -90.4 77.2 -64 89.2 -28.1Z" fill="none" stroke="#FCAF3C" stroke-width="5"></path></g></g></svg>