<svg xmlns="http://www.w3.org/2000/svg" version="1.1" xmlns:xlink="http://www.w3.org/1999/xlink" xmlns:svgjs="http://svgjs.dev/svgjs" viewBox="0 0 1422 800"><g shape-rendering="crispEdges" stroke-linejoin="round" fill="none" stroke-width="2" stroke="hsl(220, 62%, 45%)"><polygon points="1244.25,100 1422,0 1244.25,0"></polygon><polygon points="1244.25,100 1066.5,0 1244.25,0"></polygon><polygon points="1244.25,200 1244.25,100 1066.5,100"></polygon><polygon points="1422,200 1422,100 1244.25,200"></polygon><polygon points="888.75,0 888.75,100 1066.5,0"></polygon><polygon points="888.75,0 888.75,100 711,100"></polygon><polygon points="888.75,200 711,200 888.75,100"></polygon><polygon points="888.75,100 1066.5,100 1066.5,200"></polygon><polygon points="1066.5,200 977.625,250 1066.5,250"></polygon><polygon points="977.625,250 888.75,250 888.75,200"></polygon><polygon points="977.625,250 888.75,250 888.75,300"></polygon><polygon points="1066.5,300 1066.5,250 977.625,250"></polygon><polygon points="888.75,200 799.875,250 888.75,250"></polygon><polygon points="711,250 799.875,200 799.875,250"></polygon><polygon points="799.875,250 711,250 799.875,300"></polygon><polygon points="799.875,300 888.75,250 888.75,300"></polygon><polygon points="888.75,300 799.875,350 799.875,300"></polygon><polygon points="799.875,350 711,350 711,300"></polygon><polygon points="799.875,400 711,350 711,400"></polygon><polygon points="799.875,400 799.875,350 888.75,400"></polygon><polygon points="1066.5,300 977.625,350 1066.5,350"></polygon><polygon points="888.75,350 977.625,350 888.75,300"></polygon><polygon points="977.625,350 977.625,400 888.75,350"></polygon><polygon points="1066.5,350 977.625,400 977.625,350"></polygon><polygon points="1422,200 1244.25,300 1244.25,200"></polygon><polygon points="1155.375,250 1244.25,200 1244.25,250"></polygon><polygon points="1155.375,250 1155.375,200 1066.5,250"></polygon><polygon points="1066.5,300 1066.5,250 1155.375,250"></polygon><polygon points="1244.25,300 1155.375,300 1155.375,250"></polygon><polygon points="1155.375,300 1244.25,300 1155.375,350"></polygon><polygon points="1155.375,350 1155.375,300 1066.5,300"></polygon><polygon points="1066.5,350 1155.375,400 1066.5,400"></polygon><polygon points="1155.375,350 1155.375,400 1244.25,400"></polygon><polygon points="1244.25,400 1422,300 1244.25,300"></polygon><polygon points="711,0 533.25,0 533.25,100"></polygon><polygon points="533.25,0 533.25,100 355.5,0"></polygon><polygon points="444.375,100 533.25,150 444.375,150"></polygon><polygon points="444.375,150 444.375,100 355.5,100"></polygon><polygon points="355.5,150 444.375,200 355.5,200"></polygon><polygon points="533.25,150 444.375,200 444.375,150"></polygon><polygon points="711,200 533.25,200 711,100"></polygon><polygon points="355.5,100 355.5,0 177.75,100"></polygon><polygon points="177.75,100 0,100 0,0"></polygon><polygon points="0,100 177.75,200 0,200"></polygon><polygon points="355.5,200 355.5,100 177.75,100"></polygon><polygon points="355.5,200 355.5,250 266.625,250"></polygon><polygon points="266.625,250 266.625,200 177.75,200"></polygon><polygon points="266.625,250 177.75,300 266.625,300"></polygon><polygon points="355.5,250 266.625,250 355.5,300"></polygon><polygon points="177.75,300 177.75,200 0,200"></polygon><polygon points="177.75,400 0,400 0,300"></polygon><polygon points="355.5,400 177.75,300 177.75,400"></polygon><polygon points="711,200 622.125,200 622.125,250"></polygon><polygon points="533.25,250 533.25,200 622.125,250"></polygon><polygon points="622.125,250 622.125,300 533.25,250"></polygon><polygon points="622.125,250 622.125,300 711,300"></polygon><polygon points="533.25,200 355.5,300 533.25,300"></polygon><polygon points="533.25,350 444.375,300 444.375,350"></polygon><polygon points="444.375,350 355.5,350 355.5,300"></polygon><polygon points="355.5,400 444.375,350 355.5,350"></polygon><polygon points="533.25,400 444.375,400 444.375,350"></polygon><polygon points="711,350 622.125,350 711,300"></polygon><polygon points="622.125,350 533.25,350 622.125,300"></polygon><polygon points="622.125,350 533.25,400 533.25,350"></polygon><polygon points="711,350 622.125,350 711,400"></polygon><polygon points="711,400 711,450 622.125,450"></polygon><polygon points="622.125,450 533.25,450 533.25,400"></polygon><polygon points="533.25,500 622.125,450 622.125,500"></polygon><polygon points="666.5625,475 711,450 711,475"></polygon><polygon points="666.5625,475 622.125,450 666.5625,450"></polygon><polygon points="666.5625,500 622.125,475 622.125,500"></polygon><polygon points="711,500 666.5625,500 666.5625,475"></polygon><polygon points="444.375,400 533.25,450 533.25,400"></polygon><polygon points="444.375,400 444.375,450 355.5,400"></polygon><polygon points="444.375,450 355.5,500 355.5,450"></polygon><polygon points="533.25,500 444.375,450 533.25,450"></polygon><polygon points="488.8125,525 533.25,500 533.25,525"></polygon><polygon points="488.8125,500 444.375,525 488.8125,525"></polygon><polygon points="444.375,525 488.8125,550 444.375,550"></polygon><polygon points="488.8125,525 533.25,550 488.8125,550"></polygon><polygon points="355.5,500 444.375,500 355.5,550"></polygon><polygon points="355.5,600 444.375,550 444.375,600"></polygon><polygon points="533.25,550 533.25,600 444.375,600"></polygon><polygon points="622.125,500 622.125,550 711,550"></polygon><polygon points="622.125,500 533.25,550 533.25,500"></polygon><polygon points="622.125,600 533.25,600 622.125,550"></polygon><polygon points="711,600 622.125,550 622.125,600"></polygon><polygon points="355.5,450 266.625,400 355.5,400"></polygon><polygon points="266.625,450 266.625,400 177.75,450"></polygon><polygon points="266.625,500 266.625,450 177.75,450"></polygon><polygon points="355.5,500 355.5,450 266.625,500"></polygon><polygon points="177.75,500 0,400 177.75,400"></polygon><polygon points="177.75,600 0,600 0,500"></polygon><polygon points="355.5,500 355.5,550 266.625,500"></polygon><polygon points="266.625,500 266.625,550 177.75,500"></polygon><polygon points="266.625,600 177.75,600 177.75,550"></polygon><polygon points="266.625,550 355.5,600 355.5,550"></polygon><polygon points="355.5,600 355.5,700 177.75,700"></polygon><polygon points="0,600 177.75,700 177.75,600"></polygon><polygon points="177.75,800 177.75,700 0,800"></polygon><polygon points="355.5,700 177.75,700 355.5,800"></polygon><polygon points="711,650 711,600 622.125,650"></polygon><polygon points="622.125,600 533.25,600 533.25,650"></polygon><polygon points="533.25,650 622.125,650 533.25,700"></polygon><polygon points="711,650 622.125,650 622.125,700"></polygon><polygon points="355.5,600 533.25,700 533.25,600"></polygon><polygon points="533.25,700 533.25,800 355.5,700"></polygon><polygon points="533.25,700 711,800 533.25,800"></polygon><polygon points="1244.25,500 1422,500 1244.25,400"></polygon><polygon points="1244.25,400 1244.25,450 1155.375,450"></polygon><polygon points="1066.5,400 1155.375,400 1066.5,450"></polygon><polygon points="1155.375,500 1066.5,500 1155.375,450"></polygon><polygon points="1155.375,500 1244.25,450 1244.25,500"></polygon><polygon points="1244.25,550 1155.375,500 1155.375,550"></polygon><polygon points="1155.375,550 1155.375,500 1066.5,550"></polygon><polygon points="1155.375,600 1155.375,550 1066.5,550"></polygon><polygon points="1244.25,600 1244.25,550 1155.375,550"></polygon><polygon points="1422,500 1422,600 1244.25,500"></polygon><polygon points="977.625,450 977.625,400 1066.5,450"></polygon><polygon points="977.625,425 933.1875,400 933.1875,425"></polygon><polygon points="933.1875,425 888.75,400 933.1875,400"></polygon><polygon points="933.1875,450 888.75,425 888.75,450"></polygon><polygon points="977.625,425 977.625,450 933.1875,450"></polygon><polygon points="977.625,500 888.75,500 977.625,450"></polygon><polygon points="1066.5,500 977.625,450 1066.5,450"></polygon><polygon points="799.875,450 799.875,400 888.75,450"></polygon><polygon points="711,450 799.875,400 799.875,450"></polygon><polygon points="711,450 711,500 799.875,450"></polygon><polygon points="888.75,450 799.875,500 799.875,450"></polygon><polygon points="888.75,500 888.75,550 799.875,500"></polygon><polygon points="711,550 799.875,500 799.875,550"></polygon><polygon points="799.875,600 799.875,550 711,550"></polygon><polygon points="888.75,550 799.875,600 799.875,550"></polygon><polygon points="977.625,550 1066.5,500 977.625,500"></polygon><polygon points="977.625,550 888.75,500 888.75,550"></polygon><polygon points="888.75,550 977.625,550 888.75,600"></polygon><polygon points="977.625,550 977.625,600 1066.5,600"></polygon><polygon points="1066.5,600 977.625,600 1066.5,650"></polygon><polygon points="977.625,650 888.75,650 977.625,600"></polygon><polygon points="977.625,650 977.625,700 888.75,700"></polygon><polygon points="1066.5,700 1066.5,650 977.625,650"></polygon><polygon points="888.75,600 799.875,600 888.75,650"></polygon><polygon points="711,600 799.875,600 799.875,650"></polygon><polygon points="799.875,650 799.875,700 711,650"></polygon><polygon points="888.75,700 888.75,650 799.875,700"></polygon><polygon points="888.75,700 888.75,800 711,700"></polygon><polygon points="888.75,700 1066.5,700 1066.5,800"></polygon><polygon points="1422,700 1244.25,700 1244.25,600"></polygon><polygon points="1244.25,600 1155.375,600 1244.25,650"></polygon><polygon points="1155.375,650 1155.375,600 1066.5,650"></polygon><polygon points="1066.5,650 1155.375,650 1066.5,700"></polygon><polygon points="1244.25,650 1155.375,700 1244.25,700"></polygon><polygon points="1244.25,700 1066.5,800 1244.25,800"></polygon><polygon points="1244.25,700 1422,700 1422,800"></polygon></g><g fill="hsl(220, 62%, 45%)" stroke-width="3" stroke="hsl(220, 43%, 13%)"></g></svg>