<svg id="visual" viewBox="0 0 960 540" width="960" height="540" xmlns="http://www.w3.org/2000/svg" xmlns:xlink="http://www.w3.org/1999/xlink" version="1.1"><path d="M0 199L13.3 192C26.7 185 53.3 171 80 182.2C106.7 193.3 133.3 229.7 160 236.2C186.7 242.7 213.3 219.3 240 208C266.7 196.7 293.3 197.3 320 205.8C346.7 214.3 373.3 230.7 400 243C426.7 255.3 453.3 263.7 480 245.3C506.7 227 533.3 182 560 174.5C586.7 167 613.3 197 640 197.8C666.7 198.7 693.3 170.3 720 174.5C746.7 178.7 773.3 215.3 800 227.5C826.7 239.7 853.3 227.3 880 222C906.7 216.7 933.3 218.3 946.7 219.2L960 220L960 0L946.7 0C933.3 0 906.7 0 880 0C853.3 0 826.7 0 800 0C773.3 0 746.7 0 720 0C693.3 0 666.7 0 640 0C613.3 0 586.7 0 560 0C533.3 0 506.7 0 480 0C453.3 0 426.7 0 400 0C373.3 0 346.7 0 320 0C293.3 0 266.7 0 240 0C213.3 0 186.7 0 160 0C133.3 0 106.7 0 80 0C53.3 0 26.7 0 13.3 0L0 0Z" fill="#0066FF" stroke-linecap="round" stroke-linejoin="miter"></path></svg>